<?xml version="1.0" encoding="UTF-8" standalone="no"?>
<!-- Created with Inkscape (http://www.inkscape.org/) -->

<svg
   xmlns:dc="http://purl.org/dc/elements/1.1/"
   xmlns:cc="http://creativecommons.org/ns#"
   xmlns:rdf="http://www.w3.org/1999/02/22-rdf-syntax-ns#"
   xmlns:svg="http://www.w3.org/2000/svg"
   xmlns="http://www.w3.org/2000/svg"
   xmlns:sodipodi="http://sodipodi.sourceforge.net/DTD/sodipodi-0.dtd"
   xmlns:inkscape="http://www.inkscape.org/namespaces/inkscape"
   width="793.70081"
   height="1122.5197"
   id="svg3134"
   version="1.1"
   inkscape:version="0.92.2 (5c3e80d, 2017-08-06)"
   sodipodi:docname="diypinball logo.svg"
   viewBox="0 0 744.09448 1052.3622">
  <defs
     id="defs3136" />
  <sodipodi:namedview
     id="base"
     pagecolor="#ffffff"
     bordercolor="#666666"
     borderopacity="1.0"
     inkscape:pageopacity="0.0"
     inkscape:pageshadow="2"
     inkscape:zoom="0.47417135"
     inkscape:cx="-48.686742"
     inkscape:cy="526.18109"
     inkscape:document-units="px"
     inkscape:current-layer="layer1"
     showgrid="false"
     inkscape:window-width="1920"
     inkscape:window-height="996"
     inkscape:window-x="-8"
     inkscape:window-y="-8"
     inkscape:window-maximized="1" />
  <metadata
     id="metadata3139">
    <rdf:RDF>
      <cc:Work
         rdf:about="">
        <dc:format>image/svg+xml</dc:format>
        <dc:type
           rdf:resource="http://purl.org/dc/dcmitype/StillImage" />
        <dc:title></dc:title>
      </cc:Work>
    </rdf:RDF>
  </metadata>
  <g
     inkscape:label="Layer 1"
     inkscape:groupmode="layer"
     id="layer1">
    <path
       style="fill:#262324"
       inkscape:connector-curvature="0"
       d="m 330.1359,72.227176 c 6.88434,-1.729336 14.05508,-0.738021 21.08262,-1.035393 9.37372,0.06616 18.76948,-0.462643 28.13218,0.132321 -1.14555,2.500393 -2.214,5.782883 -5.2321,6.487823 -6.9284,2.797809 -14.62785,2.379244 -21.77656,0.815091 -7.75453,2.852885 -17.65697,0.826133 -22.20614,-6.399667 z"
       id="path3123" />
    <path
       style="fill:#252422"
       inkscape:connector-curvature="0"
       d="m 279.66538,75.509623 c 7.64438,-0.396526 15.2447,-1.971677 22.92212,-1.288732 -0.93627,1.828445 -1.70732,3.767085 -3.00708,5.375272 -6.9284,4.064545 -15.36586,5.077899 -23.16445,3.568866 -3.87726,1.167583 -7.93076,2.907916 -12.02832,1.883564 -4.07554,-1.487038 -9.49489,-1.982717 -10.72856,-7.005541 8.65775,-0.980318 17.33753,-1.67426 26.00629,-2.533429 z"
       id="path3125" />
    <path
       style="fill:#252324"
       inkscape:connector-curvature="0"
       d="m 406.0179,74.34204 c 2.91896,2.98503 4.97876,7.104651 3.81118,11.356418 -1.25571,4.461071 -0.85917,9.021252 0.40757,13.416206 0.0219,4.934716 0.2313,11.169156 -4.16365,14.451596 -1.46499,0.29751 -2.92998,0.49568 -4.40599,0.5728 -0.5948,-2.00471 -1.57513,-4.02047 -1.12352,-6.16837 1.24469,-9.131403 2.23604,-18.30684 3.40362,-27.449241 0.33045,-2.169983 1.1786,-4.196735 2.07081,-6.179409 z"
       id="path3127" />
    <path
       style="fill:#252322"
       inkscape:connector-curvature="0"
       d="m 299.08475,81.677991 c 1.35483,-1.850485 3.22738,-3.216374 4.97875,-4.670332 0.83714,2.114864 1.55311,4.306842 1.465,6.619969 -0.0551,10.618442 1.22265,21.192802 1.0354,31.811202 -0.74902,0.48464 -2.24705,1.43192 -2.99607,1.9056 -2.32415,-1.58619 -5.83792,-3.04015 -5.83792,-6.32259 -0.20926,-4.68138 -0.8812,-9.51693 0.57278,-14.055076 1.64122,-4.97879 -0.31946,-10.26595 0.78206,-15.288773 z"
       id="path3129" />
    <path
       style="fill:#252323"
       inkscape:connector-curvature="0"
       d="m 484.36727,78.538731 c 2.40124,0.02191 4.81352,0.143275 7.19276,0.572794 13.51532,2.357205 27.08575,4.427991 40.61211,6.752159 -0.57275,2.30213 -1.74033,4.461072 -3.87724,5.65065 -7.30291,1.222658 -15.01339,0.87021 -21.84266,-2.158898 -2.75374,-1.277734 -5.87096,-0.07711 -8.75688,-0.561797 -4.29584,0.01314 -7.4461,-3.21633 -10.90481,-5.276162 -1.77342,-1.013354 -1.76238,-3.282447 -2.42328,-4.978746 z"
       id="path3131" />
    <path
       style="fill:#252323"
       inkscape:connector-curvature="0"
       d="m 411.63553,79.706314 c 0.67191,0 2.02675,0 2.69866,0 1.99371,5.18805 3.61291,10.519288 5.71676,15.674302 2.55547,5.639654 1.20063,11.984244 0.0441,17.800164 -0.50669,-0.0662 -1.52006,-0.18709 -2.02675,-0.25325 -2.5004,-5.81588 -5.12195,-11.57668 -7.39103,-17.480709 -1.34383,-5.21009 0.49567,-10.530286 0.9583,-15.740375 z"
       id="path3133" />
    <path
       style="fill:#252422"
       inkscape:connector-curvature="0"
       d="m 451.19022,83.803896 c 1.43194,-2.30213 3.99843,-3.458715 6.26752,-4.780483 0.39653,2.929955 0.38557,5.89299 -0.0351,8.822945 -1.28878,9.153443 -2.36825,18.350922 -3.63494,27.515362 -0.34149,1.78441 -2.23605,2.46735 -3.45871,3.52478 -1.78442,-1.6853 -3.74508,-3.28244 -4.90165,-5.48542 -0.0219,-5.43039 0.55075,-11.09208 3.06215,-16.004753 2.09285,-4.218731 1.55311,-9.109365 2.69867,-13.592431 z"
       id="path3135" />
    <path
       style="fill:#262322"
       inkscape:connector-curvature="0"
       d="m 346.85659,86.987189 c 0.0219,-3.040106 1.1015,-6.46574 4.48309,-7.148685 2.16995,-0.693942 3.51377,1.354848 4.54918,2.918957 0.5948,10.607401 -2.01574,21.005499 -3.27144,31.469709 -1.33281,-0.0662 -2.66562,-0.13232 -3.9764,-0.22039 -0.31946,-2.76473 -0.38553,-5.5405 -0.26438,-8.31627 0.60582,-6.333592 -2.8749,-12.358772 -1.52006,-18.703408 z"
       id="path3137" />
    <path
       style="fill:#252423"
       inkscape:connector-curvature="0"
       d="m 251.90771,95.42465 c -0.18727,-4.769485 -1.04642,-9.781268 0.93627,-14.308412 1.88355,1.927599 4.19669,3.690014 4.98977,6.38867 0.78206,4.648293 -0.39652,9.627082 1.79544,14.000002 2.32415,4.31788 2.214,9.34066 1.88356,14.08811 -0.17623,3.29348 -3.49175,4.93471 -6.32259,5.5075 -0.88119,-1.77341 -2.12589,-3.50275 -2.28009,-5.5295 -0.45162,-6.70812 -0.2203,-13.46028 -1.00236,-20.14637 z"
       id="path3139" />
    <path
       style="fill:#252422"
       inkscape:connector-curvature="0"
       d="m 499.17136,92.714997 c 1.10151,-2.819848 5.50746,-4.284847 7.36899,-1.420965 1.35485,1.376887 0.73802,3.524788 0.59483,5.221087 -1.06847,5.518501 -2.20302,11.070041 -4.45007,16.247091 -1.83949,4.16362 -1.53108,9.62704 -5.90399,12.22659 -3.57986,-5.46343 1.04639,-11.24627 0.2642,-17.05115 -0.4406,-5.15501 0.23135,-10.398136 2.12591,-15.222653 z"
       id="path3141" />
    <path
       style="fill:#252422"
       inkscape:connector-curvature="0"
       d="m 526.95105,94.146916 c 1.27774,-2.522431 4.22978,-3.293444 6.67509,-4.240769 0.36367,6.818276 -2.24705,13.284063 -3.3816,19.915073 -1.43196,6.11329 -2.37924,12.33673 -4.31788,18.30684 -1.36585,0.0662 -2.70965,0.12093 -4.04246,0.17614 -1.17863,-1.96064 -2.96304,-3.81117 -2.99608,-6.22345 0.0771,-3.20533 0.83713,-6.35563 1.58615,-9.46185 0.85917,-3.37056 3.55783,-5.92603 4.31784,-9.34067 0.8041,-3.01811 1.07947,-6.179407 2.15894,-9.131401 z"
       id="path3143" />
    <path
       style="fill:#242322"
       inkscape:connector-curvature="0"
       d="m 216.90219,96.977762 c 0.64988,-2.16994 2.14791,-3.8442 3.89929,-5.221087 1.88356,5.265164 3.40362,11.367415 1.05744,16.731735 -1.88356,4.75844 -3.41464,9.64908 -5.4524,14.33045 -1.15658,3.22737 -5.14399,2.76473 -7.85366,3.44767 -0.46263,-1.96068 -1.5421,-4.00947 -0.64989,-6.02518 2.81983,-7.82063 6.06924,-15.48703 8.99922,-23.263588 z"
       id="path3145" />
    <path
       style="fill:#262322"
       inkscape:connector-curvature="0"
       d="m 560.80001,91.272037 c 9.25255,1.927598 18.36191,4.516103 27.55943,6.73012 6.43271,1.795452 13.07471,2.863883 19.29816,5.342233 -1.65222,2.10387 -3.38156,4.82456 -6.38867,4.8356 -7.37999,0.99132 -14.78205,-1.29977 -21.24784,-4.73644 -2.66562,-0.47364 -5.41935,-0.0351 -8.06293,-0.68295 -4.40599,-0.83713 -7.2258,-4.670331 -10.87178,-6.939424 -0.0662,-1.134502 -0.22039,-3.414593 -0.28655,-4.549139 z"
       id="path3147" />
    <path
       style="fill:#262323"
       inkscape:connector-curvature="0"
       d="m 555.0612,100.01791 c 0.60583,-2.346206 1.99372,-4.361916 3.45872,-6.26752 1.09046,2.368203 2.90796,4.71441 2.53343,7.49018 -0.63887,4.8576 -3.54679,9.34066 -2.98504,14.36349 0.50668,4.91267 -0.69394,9.96853 -3.18333,14.2203 -1.32177,2.37924 -4.39496,2.28009 -6.67505,2.97403 -2.77577,-3.8442 -0.49568,-8.15109 0.67191,-12.10544 2.08182,-6.88434 4.08654,-13.79073 6.17936,-20.67504 z"
       id="path3149" />
    <path
       style="fill:#262324"
       inkscape:connector-curvature="0"
       d="m 184.40808,96.272822 c 5.04485,4.306838 7.87569,10.442178 11.87412,15.619178 4.00944,4.8686 3.71204,11.60976 3.57986,17.54683 -4.26279,-3.57986 -7.24784,-8.32731 -10.69552,-12.62316 -4.97876,-5.48542 -5.36428,-13.54835 -4.75846,-20.542848 z"
       id="path3151" />
    <path
       style="fill:#252422"
       inkscape:connector-curvature="0"
       d="m 138.20036,100.96519 c 4.0535,-1.05743 8.06294,-2.478395 12.31471,-2.610541 -0.56176,2.048751 -0.6609,4.427991 -2.10385,6.091251 -5.47444,4.59322 -12.60111,6.81828 -19.65068,7.19277 -2.99607,-0.34132 -5.26515,1.97167 -7.94178,2.81984 -4.15264,1.63019 -8.64674,0.73798 -12.88749,0.0662 -2.22503,-0.16518 -3.3155,-2.30213 -4.73643,-3.69001 11.40047,-4.13062 23.37372,-6.44375 35.00552,-9.86938 z"
       id="path3153" />
    <path
       style="fill:#252322"
       inkscape:connector-curvature="0"
       d="m 601.50027,110.33889 c 1.28873,-2.5885 4.59322,-2.54442 7.02754,-3.26041 -0.23134,4.36192 -1.80645,8.4705 -3.06215,12.61212 -2.24705,7.01654 -4.2738,14.11015 -6.52086,21.12669 -0.42982,1.82849 -1.82849,3.10622 -3.04015,4.41699 -2.46735,-1.77341 -5.49646,-4.08654 -5.08889,-7.51222 1.04643,-4.91267 2.19198,-10.05664 5.40835,-14.06607 3.06214,-3.85524 3.05115,-9.06533 5.27616,-13.3171 z"
       id="path3155" />
    <path
       style="fill:#252422"
       inkscape:connector-curvature="0"
       d="m 122.59217,116.77164 c 0.57277,-3.69001 6.14634,-5.47442 7.87569,-1.71834 1.9166,6.59798 3.48072,13.42725 3.48072,20.34464 0.48466,4.10858 1.66326,8.23915 0.57278,12.38077 -1.28875,-0.69395 -2.53344,-1.43192 -3.73407,-2.22502 -1.7734,-4.10858 -1.68529,-8.81195 -3.91031,-12.7663 -2.72069,-4.85759 -4.37293,-10.43117 -4.28481,-16.01575 z"
       id="path3157" />
    <path
       style="fill:#252324"
       inkscape:connector-curvature="0"
       d="m 628.00223,121.39789 c 1.06848,-2.98503 2.61055,-5.7608 4.33988,-8.41542 1.43196,2.30213 3.13926,4.8576 2.54447,7.72148 -1.18962,4.95675 -4.57122,9.39579 -4.18569,14.68294 0.16518,4.91268 -1.87253,9.79231 -4.8796,13.60348 -1.71833,2.29113 -4.82456,1.42092 -7.23684,1.37688 -0.0881,-1.97167 -0.60583,-4.02046 0.31942,-5.88199 3.04015,-7.68844 6.1794,-15.34385 9.09836,-23.08737 z"
       id="path3159" />
    <path
       style="fill:#252322"
       inkscape:connector-curvature="0"
       d="m 282.46318,117.33339 c 4.67034,-1.81744 9.92448,-1.32177 14.85918,-1.48699 5.02281,-0.61687 5.69472,7.60029 1.15656,8.58065 -4.69237,1.04639 -9.62707,1.5751 -14.4406,1.42092 -4.11959,-0.63887 -5.57356,-6.57594 -1.57514,-8.51458 z"
       id="path3161" />
    <path
       style="fill:#262322"
       inkscape:connector-curvature="0"
       d="m 262.25074,118.78735 c 2.78679,-0.70494 5.7388,-0.76001 8.6137,-0.59479 2.97404,0.14328 5.02282,3.77813 3.4587,6.37767 -1.64123,2.952 -5.38632,2.963 -8.32731,3.4036 -2.42329,0.39653 -4.85759,-0.53971 -6.64202,-2.1589 -0.98033,-2.75377 -0.44059,-6.34463 2.89693,-7.02758 z"
       id="path3163" />
    <path
       style="fill:#262422"
       inkscape:connector-curvature="0"
       d="m 401.41365,120.60484 c 3.42565,-1.14554 5.74981,2.96304 5.49646,5.90403 -0.20926,5.17701 -0.87018,10.49725 -3.27144,15.16759 -2.1369,4.5161 -0.738,9.99052 -3.22738,14.37448 -1.3989,1.63023 -3.45869,3.98743 -5.81589,2.72069 0.0771,-8.69079 2.00472,-17.2604 2.69866,-25.91816 0.87018,-4.16366 -0.0329,-9.61605 4.11959,-12.24863 z"
       id="path3165" />
    <path
       style="fill:#252323"
       inkscape:connector-curvature="0"
       d="m 63.14447,123.9754 c 4.317862,-1.49803 8.536588,-3.52479 13.162868,-3.89927 -0.385529,1.9056 -0.704958,3.8222 -1.255704,5.68373 -4.681356,5.09989 -11.312358,7.80959 -17.976403,9.13136 -5.331237,0.0552 -8.955157,4.92371 -14.187259,5.46342 -3.800158,-0.035 -7.567272,-0.64986 -11.279311,-1.36584 -0.264358,-1.04644 -0.528718,-2.09283 -0.771047,-3.12826 10.717549,-4.0755 21.556262,-7.86467 32.306856,-11.88514 z"
       id="path3167" />
    <path
       style="fill:#252423"
       inkscape:connector-curvature="0"
       d="m 348.35463,121.66227 c 0.76003,-0.0771 2.2801,-0.23134 3.04012,-0.30845 2.31314,8.15104 2.31314,16.78676 2.26908,25.21323 -0.2203,2.87487 -0.0771,7.13768 -3.53579,8.107 -2.20299,0.56176 -3.5358,-1.49803 -4.74745,-2.93 -0.78206,-4.86859 -0.29741,-9.94649 0.9583,-14.70493 1.35484,-5.03387 0.53973,-10.36511 2.01574,-15.37689 z"
       id="path3169" />
    <path
       style="fill:#252323"
       inkscape:connector-curvature="0"
       d="m 76.847069,123.62295 c 0.771048,-0.0131 2.302125,-0.035 3.073173,-0.0443 3.656965,11.69787 7.545242,23.34071 10.695517,35.18176 -1.663258,4.58222 -7.633359,1.6963 -9.274587,-1.38788 -1.88356,-4.91268 -3.965383,-10.00157 -3.535803,-15.37689 0.308414,-4.24072 -2.147913,-7.95278 -2.797795,-12.02832 -0.308414,-2.28009 1.035406,-4.30684 1.839495,-6.34459 z"
       id="path3171" />
    <path
       style="fill:#262323"
       inkscape:connector-curvature="0"
       d="m 501.52856,123.7441 c 2.79781,-1.54211 6.01414,0.099 8.97718,0.2423 3.33752,0.76001 7.72148,0.48464 9.57201,4.00942 1.45395,2.69866 -0.92529,6.23449 -3.92132,6.12434 -4.76948,0.0131 -9.59404,-0.72702 -14.11019,-2.16998 -3.64594,-1.00236 -4.21873,-6.92839 -0.51768,-8.20612 z"
       id="path3173" />
    <path
       style="fill:#252422"
       inkscape:connector-curvature="0"
       d="m 443.35859,128.30428 c 0.96932,-2.62154 3.84422,-3.6129 6.04721,-4.92367 1.54209,2.22502 3.15028,4.69237 2.44532,7.54526 -1.60818,10.47521 -2.12589,21.15972 -4.5712,31.49174 -2.98506,-1.1015 -5.71677,-3.53582 -5.18805,-7.04957 0.738,-9.01026 -1.55311,-18.26281 1.26672,-27.06376 z"
       id="path3175" />
    <path
       style="fill:#252323"
       inkscape:connector-curvature="0"
       d="m 427.2327,133.28303 c -1.23367,-2.65458 -0.66089,-5.60657 -0.38553,-8.39338 2.2801,0.38557 5.22109,-0.19849 6.96146,1.66326 2.22501,3.89932 3.54681,8.2392 5.39732,12.31474 3.04013,6.14633 2.96302,13.72462 0.16523,19.92602 -2.08183,-2.54447 -3.57986,-5.46342 -4.7805,-8.50353 -2.3572,-5.71677 -5.07789,-11.26831 -7.35798,-17.00711 z"
       id="path3177" />
    <path
       style="fill:#252422"
       inkscape:connector-curvature="0"
       d="m 253.68111,132.08241 c -0.2203,-2.85284 2.02675,-5.66169 5.05587,-5.0779 4.81353,2.46736 3.69001,8.4595 4.00944,12.89853 0.27538,3.09518 -0.72699,6.04722 -1.36585,9.02125 -0.62786,5.71677 1.80645,12.28166 -2.70968,16.952 -0.8812,0.0131 -2.66562,0.0442 -3.54682,0.0662 -0.16522,-11.30135 -1.45397,-22.54761 -1.44296,-33.86 z"
       id="path3179" />
    <path
       style="fill:#252323"
       inkscape:connector-curvature="0"
       d="m 493.52067,130.56233 c 0.81513,-0.0131 2.45635,-0.0552 3.28249,-0.0771 0.88116,9.54997 -1.06848,19.0779 -3.00712,28.38552 -0.2642,2.28009 -2.33516,3.57987 -3.77812,5.11094 -1.54207,-1.35485 -4.40595,-2.11486 -4.19669,-4.61526 -0.22039,-4.5051 1.00235,-8.97721 2.81984,-13.06375 2.32413,-5.02283 2.67662,-10.66248 4.8796,-15.74038 z"
       id="path3181" />
    <path
       style="fill:#262324"
       inkscape:connector-curvature="0"
       d="m 551.87791,132.94158 c 3.8332,-1.18962 8.01889,0.0552 11.4996,1.77341 2.43432,1.17858 3.33753,5.05586 1.09047,6.84027 -1.89456,2.18098 -5.14397,1.36589 -7.61133,0.98036 -2.76472,-0.58379 -6.23444,-1.81749 -6.81823,-4.95675 -0.67195,-1.87252 0.59479,-3.39259 1.83949,-4.63729 z"
       id="path3183" />
    <path
       style="fill:#262421"
       inkscape:connector-curvature="0"
       d="m 515.02189,138.28386 c 0.84812,-2.76478 3.8332,-3.69002 6.13533,-4.93471 4.46102,3.49175 1.81744,9.18647 1.05743,13.74666 -1.99372,8.25019 -3.20538,16.68765 -5.72781,24.80566 -2.21397,-1.17858 -5.14397,-2.64358 -4.9677,-5.58458 0.27516,-4.0535 1.78441,-8.00785 1.25569,-12.11643 -0.77105,-5.41935 0.61683,-10.78367 2.24706,-15.9166 z"
       id="path3185" />
    <path
       style="fill:#252422"
       inkscape:connector-curvature="0"
       d="m 49.937542,141.01555 c 0.407554,-3.66798 4.075532,-5.40835 7.225808,-3.59086 3.337531,7.2258 5.254132,15.06843 6.289538,22.93309 0.980331,3.35956 1.597168,6.82928 0.782063,10.29899 -6.168374,-1.67426 -4.97876,-8.97718 -7.952797,-13.36113 -3.260426,-4.87964 -5.73879,-10.3871 -6.344612,-16.28009 z"
       id="path3187" />
    <path
       style="fill:#252422"
       inkscape:connector-curvature="0"
       d="m 203.93759,137.03916 c 0.76003,-0.0443 2.30213,-0.12137 3.06215,-0.16518 3.40363,8.30527 5.28718,17.19433 6.20143,26.11643 0,2.04879 0.60582,4.90167 -1.38789,6.24548 -2.22502,2.15894 -5.18804,-0.39652 -6.31157,-2.47835 -1.09048,-4.09758 -1.52006,-8.37139 -1.24469,-12.60112 0.40757,-5.71676 -0.80409,-11.40045 -0.31941,-17.11722 z"
       id="path3189" />
    <path
       style="fill:#252323"
       inkscape:connector-curvature="0"
       d="m 573.19182,138.11863 c 5.08894,-0.93628 10.16679,1.15654 15.02439,2.50039 3.51379,0.99132 5.14402,5.71673 2.1369,8.23916 -5.24308,1.81749 -10.68447,-0.78206 -15.75137,-2.07079 -4.07554,-0.77106 -5.47442,-6.84031 -1.40992,-8.66876 z"
       id="path3191" />
    <path
       style="fill:#252322"
       inkscape:connector-curvature="0"
       d="m 542.17371,142.51359 c 0.74902,-2.21402 3.24941,-5.33124 5.79388,-3.78917 2.81985,0.67194 2.43432,4.17469 2.39024,6.43275 -0.92524,4.73644 -2.23601,9.583 -5.14397,13.51536 -2.96303,3.93231 -3.08418,9.08732 -5.19905,13.39416 -1.28877,2.55547 -4.33992,3.09523 -6.81827,3.80017 -0.0219,-2.45636 0.23134,-4.91267 1.06847,-7.23684 2.74269,-8.66876 5.16601,-17.44767 7.9087,-26.11643 z"
       id="path3193" />
    <path
       style="fill:#262324"
       inkscape:connector-curvature="0"
       d="m 703.82918,139.29721 c 0.59479,0.0219 1.78441,0.0881 2.3792,0.12093 0.17614,2.50039 0.83713,5.0779 0.20944,7.5563 -1.14554,3.09518 -2.99607,5.87095 -4.21873,8.93309 -1.18962,3.26046 -0.57279,6.95043 -2.16994,10.08973 -1.71834,3.56882 -3.35956,7.94178 -7.53426,9.20847 -1.58615,0.85917 -3.21633,-0.62782 -4.52714,-1.3438 -0.84813,-3.74509 1.80649,-6.89539 3.21637,-10.12277 4.30684,-8.09596 7.72148,-16.68765 12.6452,-24.44217 z"
       id="path3195" />
    <path
       style="fill:#252321"
       inkscape:connector-curvature="0"
       d="m 588.87712,150.41129 c 1.61923,-0.44061 3.32652,-0.39653 5.01182,-0.47364 1.50904,5.89299 -1.40992,11.46657 -2.89696,17.01811 -2.29109,6.70812 -3.56882,13.77969 -6.74112,20.14637 -1.47604,-0.92529 -3.30448,-1.74038 -3.75613,-3.59091 -1.34381,-2.74273 0.35271,-5.65065 0.94728,-8.36034 1.52008,-4.406 0.0443,-9.19748 1.6853,-13.59243 1.36585,-3.89932 1.67426,-8.98822 5.74981,-11.14716 z"
       id="path3197" />
    <path
       style="fill:#252423"
       inkscape:connector-curvature="0"
       d="m 133.93757,152.62531 c 5.07789,3.30448 5.85995,9.68215 7.77655,14.93628 1.58616,5.66169 3.679,11.44453 3.0181,17.42563 -0.79308,0.4406 -2.37923,1.33281 -3.16129,1.78445 -1.43194,-0.85916 -2.92998,-1.63022 -4.15264,-2.76477 -1.87254,-4.92367 -2.66562,-10.23287 -2.54445,-15.49803 -0.38553,-5.2982 -2.5775,-10.55233 -0.93627,-15.88356 z"
       id="path3199" />
    <path
       style="fill:#252422"
       inkscape:connector-curvature="0"
       d="m 338.72756,154.87236 c 4.90165,-1.78441 9.79229,2.76473 14.60583,0.36366 8.00787,-2.18098 18.62628,-1.09046 22.97719,6.98346 -5.68372,1.5862 -11.57672,0.93629 -17.3816,1.09052 -10.99292,-0.0881 -22.01889,0.48463 -33.00079,-0.10998 2.70967,-4.83556 8.18411,-6.0913 12.79937,-8.32731 z"
       id="path3201" />
    <path
       style="fill:#262323"
       inkscape:connector-curvature="0"
       d="m 612.2729,160.71027 c 0.82609,-2.99607 3.85524,-4.86859 6.87331,-3.76712 3.56886,4.14166 0.30845,9.47289 -1.2557,13.73566 -1.34381,4.18569 -5.2982,6.79624 -6.69708,10.94885 -1.465,3.94335 -2.87493,8.05193 -6.27852,10.77263 -1.16758,-0.10998 -3.48076,-0.34132 -4.6373,-0.45161 3.49171,-10.5964 8.0299,-20.81827 11.99529,-31.23841 z"
       id="path3203" />
    <path
       style="fill:#242322"
       inkscape:connector-curvature="0"
       d="m 464.38612,167.58363 c 3.37061,-4.22978 8.92215,-4.395 13.68059,-5.91503 3.08418,-0.88121 6.04722,0.9032 8.78991,2.11486 3.33757,2.04879 7.24784,-0.0219 10.86078,0.62783 6.86231,0.34132 14.70494,3.94335 16.47835,11.16919 -6.22344,-0.0131 -12.27066,-1.6853 -18.40599,-2.47839 -10.45317,-1.90556 -21.06057,-3.06215 -31.40364,-5.51846 z"
       id="path3205" />
    <path
       style="fill:#252322"
       inkscape:connector-curvature="0"
       d="m 86.20978,173.81807 c -0.48466,-2.98503 1.542092,-7.60033 5.011805,-7.02754 2.665614,1.49804 3.65696,4.58222 4.439023,7.34699 2.621559,9.40674 6.278522,18.52715 8.261212,28.09911 -2.44532,0.12137 -5.243114,0.0662 -6.69709,-2.25805 -2.136898,-3.31549 -2.379226,-7.53422 -4.67034,-10.78363 -3.370572,-4.49411 -5.232102,-9.93549 -6.34461,-15.37688 z"
       id="path3207" />
    <path
       style="fill:#252422"
       inkscape:connector-curvature="0"
       d="m 63.827397,176.69299 c 0.804089,-0.0443 2.401261,-0.12137 3.20535,-0.16518 5.077895,8.39338 8.845006,17.64593 11.213222,27.16286 0.837134,2.51139 -1.949646,3.77813 -3.348546,5.33124 -5.793864,-2.1259 -6.586942,-8.87806 -7.578288,-14.14318 -0.319455,-6.24549 -3.403617,-11.92922 -3.491738,-18.1857 z"
       id="path3209" />
    <path
       style="fill:#252323"
       inkscape:connector-curvature="0"
       d="m 681.73318,182.75121 c 1.36584,-2.56651 4.53814,-1.81749 6.89534,-1.63023 1.86153,6.62001 -2.3792,12.84346 -6.15732,17.88828 -3.92136,3.48075 -5.48547,8.54761 -8.09601,12.90953 -1.63023,2.72069 -5.02283,3.23841 -7.89771,3.29348 0.60579,-4.67033 3.3926,-8.59168 5.29816,-12.78838 3.3706,-6.52086 6.30056,-13.29505 9.95754,-19.67268 z"
       id="path3211" />
    <path
       style="fill:#262323"
       inkscape:connector-curvature="0"
       d="m 145.40413,186.25396 c 6.84029,-4.75845 16.2801,-5.56254 23.58302,-1.31077 0.0771,0.70494 0.2313,2.10386 0.30841,2.8088 -10.31,3.13926 -20.80725,5.59558 -31.17231,8.51458 -5.47443,1.32177 -10.79466,3.33752 -16.4233,3.85519 1.476,-5.177 6.39969,-7.6664 10.17782,-10.94885 3.89929,-3.2604 9.60504,0.20944 13.52636,-2.91895 z"
       id="path3213" />
    <path
       style="fill:#262323"
       inkscape:connector-curvature="0"
       d="m 600.29965,195.27521 c 4.09754,-3.43668 9.49485,-3.01811 14.48464,-3.35956 3.3816,-0.20944 6.06926,2.12586 8.71284,3.87723 2.3682,1.82849 5.58457,0.63887 8.30527,1.454 7.2258,1.54208 15.06847,6.09126 16.25805,14.03304 -4.37292,0.0662 -8.32727,-1.85048 -12.3147,-3.34852 -11.83006,-4.1747 -23.93549,-7.65541 -35.4461,-12.65619 z"
       id="path3215" />
    <path
       style="fill:#262323"
       inkscape:connector-curvature="0"
       d="m 84.381296,204.63791 c 6.091271,-2.53343 14.055082,-3.12826 19.309214,1.49804 -4.516133,3.49175 -10.276951,4.52714 -15.453978,6.68608 -10.596385,3.67898 -20.950442,8.10701 -31.734079,11.20219 0.870181,-2.54447 1.696303,-5.2982 3.932337,-7.01654 2.676634,-2.18093 4.626281,-5.46338 8.095993,-6.48778 2.478362,-1.01339 5.221087,-0.56175 7.83163,-0.98036 2.830841,-1.36584 4.945714,-3.94335 8.018883,-4.90163 z"
       id="path3217" />
    <path
       style="fill:#252322"
       inkscape:connector-curvature="0"
       d="m 665.9928,217.95501 c 4.08654,-3.82221 9.64912,-2.21402 14.6609,-2.4894 5.22109,0.099 7.76556,6.36663 12.99765,6.3226 4.0425,0.13232 7.72148,2.12586 11.16915,4.0535 3.62394,3.04011 7.69948,6.84028 7.14873,12.06136 -9.82535,-3.06214 -18.93471,-7.98586 -28.41861,-11.89617 -5.84891,-2.68762 -11.86309,-5.04482 -17.55782,-8.05189 z"
       id="path3219" />
    <path
       style="fill:#252322"
       d="m 120.375,232.46875 c -4.17138,0.0684 -8.33808,0.88861 -12.0625,2.84375 -10.486241,4.86864 -16.948028,16.43047 -16.5625,27.875 -0.03313,57.59718 -0.04408,115.1842 0,172.78125 -0.209283,10.15588 5.255678,20.08825 13.78125,25.5625 27.04171,17.72318 54.02822,35.53253 81.125,53.15625 9.68215,6.36764 23.01996,6.44024 32.625,-0.125 7.96381,-5.33098 13.18699,-14.77716 12.8125,-24.4375 0.28639,-6.13498 -1.96607,-11.94497 -4.125,-17.5625 -6.26751,-17.94357 -13.00428,-35.74027 -19.0625,-53.75 -3.76712,-0.0877 -7.52516,-0.11245 -11.28125,-0.15625 10.40913,-9.90219 22.15003,-18.31047 32.8125,-27.9375 -14.33045,-0.2278 -28.66955,-0.0841 -43,-0.28125 11.01495,-9.35144 22.10492,-18.65708 33.40625,-27.65625 -14.49567,-0.13145 -28.98409,-0.0528 -43.46875,-0.25 10.78364,-9.58323 22.36698,-18.23496 33.0625,-27.90625 -14.30842,-0.21907 -28.60883,-0.0277 -42.90625,-0.3125 10.92684,-9.29676 22.04754,-18.32456 33.0625,-27.5 -10.65146,-0.14104 -21.31729,-0.1875 -31.96875,-0.1875 -6.34462,-18.08658 -12.85774,-36.10275 -19.3125,-54.15625 -3.37058,-9.49489 -11.57553,-17.2583 -21.5,-19.40625 -2.44532,-0.39654 -4.93467,-0.6348 -7.4375,-0.59375 z m -0.15625,10 c 1.9743,-0.0737 3.9584,0.0735 5.875,0.375 6.58694,1.63023 11.85567,7.04883 13.9375,13.4375 7.24784,20.08025 14.30186,40.22299 21.59375,60.28125 3.73407,-0.0662 7.50492,0.0276 11.25,0.0937 -10.90481,9.31862 -22.17051,18.23091 -33.03125,27.59375 14.33045,0.19717 28.66954,0.0841 43,0.28125 -10.80567,9.54992 -22.28629,18.34698 -33.125,27.875 14.37451,0.21907 28.7615,0.0403 43.125,0.28125 -10.92683,9.31858 -22.18895,18.30437 -33.09375,27.65625 14.34146,0.14459 28.7008,0.0403 43.03125,0.28125 -10.80566,9.3957 -21.91716,18.43672 -33.03125,27.46875 10.44218,0.10078 20.87033,0.59214 31.3125,0.625 l 0.6875,0.4375 c 6.49882,17.48045 12.49375,35.15346 18.9375,52.65625 1.58615,4.2299 1.79666,8.92632 0.9375,13.34375 -2.21401,8.27184 -10.45624,14.78614 -19.125,14.3125 -4.03148,0.057 -7.86098,-1.49748 -11.1875,-3.65625 -26.62314,-17.44802 -53.24265,-34.89412 -79.84375,-52.375 -5.893,-3.6349 -9.77382,-10.28867 -9.71875,-17.25 -0.0441,-57.67461 -0.011,-115.35696 0,-173.03125 -0.29742,-7.02754 3.11826,-14.19419 9.1875,-17.90625 2.75374,-1.87942 5.99075,-2.65841 9.28125,-2.78125 z"
       id="path3221"
       inkscape:connector-curvature="0" />
    <path
       style="fill:#252322"
       inkscape:connector-curvature="0"
       d="m 588.84408,251.94715 c 4.47207,-12.89853 18.59326,-21.66645 32.13062,-19.2982 9.7923,1.28873 18.58221,8.00785 22.53661,17.05114 2.21397,4.52715 2.62154,9.62704 2.61054,14.59479 -0.0219,57.26673 0.0219,114.53333 -0.035,171.80001 0.30846,10.22205 -5.29816,20.03662 -13.84577,25.49991 -26.11648,17.2272 -52.32102,34.34442 -78.47053,51.5278 -5.21009,3.45875 -11.15816,6.27869 -17.52479,6.31155 -11.03696,0.69403 -22.118,-5.67273 -27.17391,-15.48686 -4.09753,-7.44637 -4.30684,-16.62167 -1.53107,-24.56358 12.01733,-34.15733 24.54133,-68.13851 36.39342,-102.3506 -10.89377,-2.56669 -22.82298,-1.18958 -32.57121,4.4389 -2.39025,1.20053 -4.8466,3.117 -7.66641,2.42341 -3.8222,-0.92538 -4.71441,-7.0827 -1.07947,-8.90015 9.28559,-6.0364 20.36663,-9.48377 31.49175,-9.09863 24.1448,-0.38557 46.97878,17.35995 53.12511,40.6012 0.31941,2.84184 -2.76473,5.47469 -5.56254,4.98965 -3.39259,-0.057 -4.32888,-3.91005 -5.44138,-6.42153 -4.02047,-10.76141 -12.46893,-19.47446 -22.56965,-24.77258 -12.33674,33.80505 -24.24391,67.77485 -36.43746,101.62371 -2.02675,5.35332 -2.24705,11.62106 0.46264,16.7759 3.33753,7.325 11.81902,11.77485 19.7498,10.62953 6.02518,-0.67213 10.8387,-4.63739 15.75138,-7.80959 22.41542,-14.7052 44.83084,-29.40997 67.2573,-44.10378 5.22108,-3.39259 11.11407,-6.71903 13.82377,-12.63406 2.32413,-4.72545 1.81745,-10.12303 1.87252,-15.22266 -0.0443,-55.78004 0.0351,-111.55964 -0.0351,-167.33938 0.14328,-5.9701 -2.5885,-11.91817 -7.31391,-15.59714 -4.64834,-4.15266 -11.27935,-4.87964 -17.18333,-3.67902 -6.59798,1.70734 -11.71991,7.23684 -13.81278,13.60348 -11.26826,31.65697 -22.72384,63.23683 -33.84891,94.93806 10.56332,3.50257 20.96142,7.49018 31.49175,11.10273 2.3792,0.87016 5.60657,2.33534 5.46338,5.35332 0.33037,2.48957 -1.76237,5.02295 -4.2848,5.03391 -2.87488,0.21031 -5.46343,-1.27765 -8.08497,-2.15877 -17.85524,-6.38867 -35.69948,-12.77734 -53.56572,-19.1222 -6.15737,-2.37915 -12.55704,-4.16374 -18.56018,-6.90612 -3.16129,-1.39902 -1.79545,-5.45234 -1.454,-8.06328 2.45636,-0.67169 5.05586,-1.32146 7.50118,-0.17526 10.61844,3.83338 21.28092,7.56729 31.88832,11.45544 11.7199,-31.93218 22.87806,-64.08479 34.49881,-96.05018 z"
       id="path3223" />
    <path
       style="fill:#22211f"
       d="m 372.1875,261.34375 c -3.91427,0.0673 -7.8331,0.6042 -11.625,1.5625 -8.9111,2.26909 -17.28602,6.87078 -23.71875,13.46875 -10.33203,10.30998 -15.85329,25.19925 -14.71875,39.75 0.96932,12.17164 6.43804,24.01873 15.25,32.5 9.6491,9.60513 23.40756,14.95539 37,14.4375 17.08419,-0.14284 33.46187,-10.00057 42.21875,-24.5625 6.74116,-10.83874 8.53189,-24.2001 6.21875,-36.625 -3.33753,-16.62153 -15.61644,-31.12543 -31.5,-37.0625 -6.07199,-2.42327 -12.60122,-3.58084 -19.125,-3.46875 z m 1.03125,7.90625 c 0.75961,0.004 1.52191,0.0462 2.28125,0.0937 9.97955,0.63887 19.71169,4.79037 26.9375,11.71875 -8.77892,2.58855 -17.62554,4.99401 -26.4375,7.40625 -0.0441,-3.11722 -0.18952,-6.23753 -0.34375,-9.34375 -1.76239,-0.0552 -3.4894,-0.0645 -5.21875,-0.0312 -0.59481,9.97958 -0.15085,20.00943 -0.25,30 -13.28403,0.2642 -26.59097,0.0844 -39.875,0.0625 0.30841,-10.19987 5.08824,-19.92683 12.09375,-27.21875 8.08567,-8.00303 19.41832,-12.75243 30.8125,-12.6875 z m 34,16.8125 c 5.34225,7.83163 9.0013,17.14495 8.59375,26.75 0.15423,8.48149 -2.8973,16.66407 -7.28125,23.8125 -5.61762,-2.41202 -11.44463,-4.43007 -16.875,-7.25 -0.12115,-0.73785 -0.34758,-2.23073 -0.46875,-2.96875 -5.12195,0.0662 -10.20336,-0.34611 -15.28125,-0.875 0.0441,-10.26595 0,-20.51535 0,-30.78125 10.42014,-2.96304 20.82626,-5.93377 31.3125,-8.6875 z m -57.03125,29.25 c 6.65028,-0.004 13.32123,0.0157 19.96875,0.0937 0.2203,10.00157 -0.39244,20.02069 0.3125,30 1.71834,0.0438 3.44714,-0.0187 5.1875,-0.0625 0.50669,-6.19062 0.0574,-12.39195 0.34375,-18.59375 3.54682,3.43663 7.16092,6.81314 10.71875,10.25 0.90323,-0.66073 1.84498,-1.31897 2.78125,-1.96875 4.97876,2.16972 9.96617,4.3262 15,6.375 -7.74351,8.27227 -18.73554,13.5077 -30.125,13.75 -12.06137,0.48459 -24.13965,-4.52965 -32.5,-13.1875 -6.7081,-7.21502 -11.19542,-16.66929 -11.625,-26.59375 6.64752,-0.0276 13.28722,-0.0587 19.9375,-0.0625 z"
       id="path3227"
       inkscape:connector-curvature="0" />
    <path
       style="fill:#262221"
       inkscape:connector-curvature="0"
       d="m 551.41526,550.46352 c 8.4705,-6.25679 20.05822,-8.82303 30.16998,-5.44139 1.14555,1.37667 2.00472,2.96277 2.952,4.49411 -5.94807,3.34834 -11.76399,6.92803 -17.76713,10.16684 0.0219,6.93942 -0.22039,13.87841 0.099,20.80688 3.96535,3.63489 9.16444,5.5518 13.63651,8.50362 2.02675,0.96919 4.38396,3.23837 6.69709,1.68557 5.40835,-2.95226 10.53028,-6.44388 16.1259,-9.06533 0.71594,1.99358 2.52239,3.93196 1.79541,6.17923 -4.33988,16.02666 -21.69944,27.20694 -38.07868,24.29894 -4.73645,-0.51789 -9.12036,-2.51148 -13.27302,-4.72545 -42.71598,24.59644 -85.34384,49.36902 -128.11491,73.8774 -7.26986,4.54931 -17.95437,2.104 -22.15107,-5.45234 -4.93469,-7.49018 -1.86153,-18.51624 6.02518,-22.63572 42.67193,-24.69547 85.37688,-49.34712 128.1039,-73.93261 -0.39653,-11.05892 4.82456,-22.21685 13.77969,-28.75975 z"
       id="path3235" />
    <path
       style="fill:#262221"
       inkscape:connector-curvature="0"
       d="m 162.71964,548.51375 c 10.32101,-2.52243 21.77656,-0.31985 30.14792,6.32251 8.3934,6.44387 12.75532,16.86397 13.38317,27.2398 43.11252,23.01034 86.20302,46.04259 129.2825,69.09719 5.44138,2.54433 9.5059,7.97477 9.67112,14.07689 0.8041,8.85589 -7.18175,17.21624 -16.01574,17.0734 -5.24311,0.18841 -9.69316,-3.00746 -14.16523,-5.2762 -41.46028,-22.15113 -82.8765,-44.40128 -124.39185,-66.44243 -8.77892,5.61752 -20.00316,7.39116 -29.93864,4.02046 -10.8277,-3.40355 -19.14399,-12.54599 -22.53659,-23.25263 0.87017,-1.66322 1.71833,-3.33739 2.52242,-5.02252 6.00315,3.117 11.87412,6.47674 17.91031,9.52758 6.17939,-3.45832 12.03934,-7.43497 18.14163,-11.02562 -0.46263,-7.1379 0.44059,-14.48481 -1.04642,-21.47944 -5.63966,-3.49162 -11.65382,-6.39962 -17.55784,-9.43951 1.23368,-2.01593 1.81747,-5.04486 4.59324,-5.41948 z"
       id="path3237" />
    <path
       style="fill:#21211f"
       d="m 585.03125,552.09375 c -5.50751,2.78707 -10.7643,6.04654 -16.0625,9.21875 0.0482,6.06926 0.0131,12.16979 0,18.25 4.50515,2.58859 9.00593,5.17965 13.5,7.8125 1.22266,0.6375 2.68383,1.93592 4.09375,0.8125 4.78049,-2.74282 9.68621,-5.34607 14.3125,-8.375 1.09047,-2.96321 0.45982,-6.20807 0.625,-9.28125 -0.14336,-3.13935 0.40678,-6.40857 -0.5625,-9.4375 -5.0779,-3.31592 -10.32168,-6.66466 -15.90625,-9 z m -0.3125,8.5625 c 6.35226,-0.2734 12.29208,6.36017 9.71875,12.75 -1.99372,7.87575 -14.21037,8.96985 -17.625,1.65625 -3.10623,-5.00105 -0.18795,-11.96014 5.1875,-13.84375 0.90048,-0.34148 1.81128,-0.52344 2.71875,-0.5625 z"
       id="path3239"
       inkscape:connector-curvature="0" />
    <path
       style="fill:#222120"
       d="m 157.40625,556.21875 c -5.33124,3.22698 -10.58962,6.52622 -15.84375,9.875 0.0991,6.15733 0.8896,12.26878 0.8125,18.4375 5.39732,2.88566 10.76993,5.83105 16.15625,8.75 5.36428,-3.07275 10.46846,-6.56276 15.84375,-9.625 -0.48466,-6.2673 0.80441,-12.97822 -1.15625,-18.9375 -5.07789,-3.17221 -10.51431,-5.72431 -15.8125,-8.5 z m 0.9375,8.8125 c 5.36895,0.29236 10.23417,5.21422 9.375,10.90625 -0.67191,7.18172 -10.1065,11.18647 -15.625,6.40625 -5.94807,-4.20799 -4.32005,-14.4167 2.53125,-16.71875 1.22679,-0.47296 2.47976,-0.66122 3.71875,-0.59375 z"
       id="path3241"
       inkscape:connector-curvature="0" />
  </g>
</svg>
